<?xml version="1.0" encoding="UTF-8" standalone="no"?>
<!-- Generator: Adobe Illustrator 19.0.0, SVG Export Plug-In . SVG Version: 6.00 Build 0)  -->

<svg
   xmlns:dc="http://purl.org/dc/elements/1.1/"
   xmlns:cc="http://creativecommons.org/ns#"
   xmlns:rdf="http://www.w3.org/1999/02/22-rdf-syntax-ns#"
   xmlns:svg="http://www.w3.org/2000/svg"
   xmlns="http://www.w3.org/2000/svg"
   xmlns:sodipodi="http://sodipodi.sourceforge.net/DTD/sodipodi-0.dtd"
   xmlns:inkscape="http://www.inkscape.org/namespaces/inkscape"
   version="1.1"
   id="Layer_1"
   x="0px"
   y="0px"
   viewBox="0 0 512 512"
   style="enable-background:new 0 0 512 512;"
   xml:space="preserve"
   inkscape:version="0.91 r13725"
   sodipodi:docname="yogurt.svg"><metadata
     id="metadata51"><rdf:RDF><cc:Work
         rdf:about=""><dc:format>image/svg+xml</dc:format><dc:type
           rdf:resource="http://purl.org/dc/dcmitype/StillImage" /></cc:Work></rdf:RDF></metadata><defs
     id="defs49" /><sodipodi:namedview
     pagecolor="#ffffff"
     bordercolor="#666666"
     borderopacity="1"
     objecttolerance="10"
     gridtolerance="10"
     guidetolerance="10"
     inkscape:pageopacity="0"
     inkscape:pageshadow="2"
     inkscape:window-width="1366"
     inkscape:window-height="705"
     id="namedview47"
     showgrid="false"
     inkscape:zoom="0.921875"
     inkscape:cx="333.62311"
     inkscape:cy="255.50846"
     inkscape:window-x="-8"
     inkscape:window-y="-8"
     inkscape:window-maximized="1"
     inkscape:current-layer="Layer_1" /><path
     style="fill:#39A3DB;"
     d="M400.608,512H111.391c-14.37,0-26.02-11.649-26.02-26.02V170.741h341.258V485.98  C426.628,500.349,414.979,512,400.608,512z"
     id="path3" /><path
     style="fill:#4881C2;"
     d="M255.995,170.741V512h144.613c14.371,0,26.02-11.649,26.02-26.02V170.741H255.995z"
     id="path5" /><path
     style="fill:#FFDA79;"
     d="M426.628,309.515H333.69c-12.549-30.571-42.598-52.109-77.692-52.109s-65.143,21.537-77.692,52.109  H85.37v67.653h94.671c13.438,28.465,42.392,48.167,75.958,48.167s62.52-19.703,75.958-48.167h94.671V309.515z"
     id="path7" /><path
     style="fill:#23B898;"
     d="M174.658,191.947c-9.687,0-18.432-6.682-20.659-16.528L120.173,25.883  c-2.584-11.42,4.581-22.772,16.001-25.356c11.419-2.584,22.772,4.581,25.356,16.001l33.825,149.536  c2.584,11.42-4.581,22.772-16.001,25.356C177.78,191.776,176.205,191.947,174.658,191.947z"
     id="path9" /><path
     style="fill:#4881C2;"
     d="M475.934,191.941H36.064c-11.708,0-21.201-9.492-21.201-21.201c0-11.708,9.492-21.201,21.201-21.201  h439.871c11.708,0,21.201,9.492,21.201,21.201C497.135,182.45,487.644,191.941,475.934,191.941z"
     id="path11" /><path
     style="fill:#FFC72D;"
     d="M333.691,309.515c-12.549-30.571-42.598-52.109-77.692-52.109c-0.001,0-0.003,0-0.004,0v167.928  c0.001,0,0.003,0,0.004,0c33.565,0,62.52-19.703,75.958-48.167h94.671v-67.653L333.691,309.515L333.691,309.515z"
     id="path13" /><path
     style="fill:#3E6EA6;"
     d="M475.934,149.54H255.995v42.401h219.94c11.708,0,21.201-9.492,21.201-21.201  C497.135,159.032,487.644,149.54,475.934,149.54z"
     id="path15" /><g
     id="g17" /><g
     id="g19" /><g
     id="g21" /><g
     id="g23" /><g
     id="g25" /><g
     id="g27" /><g
     id="g29" /><g
     id="g31" /><g
     id="g33" /><g
     id="g35" /><g
     id="g37" /><g
     id="g39" /><g
     id="g41" /><g
     id="g43" /><g
     id="g45" /><rect
     y="250.15256"
     x="146.01695"
     style="fill:#f7df1e"
     width="226.47458"
     height="178.74577"
     id="rect4" /><path
     inkscape:connector-curvature="0"
     d="m 298.15034,389.79838 c 4.56184,5.87875 10.49692,10.19986 20.99383,10.19986 8.81813,0 14.45124,-3.47844 14.45124,-8.28472 0,-5.75959 -5.78768,-7.79956 -15.49374,-11.15033 l -5.32035,-1.80165 c -15.35713,-5.16376 -25.55927,-11.63266 -25.55927,-25.30813 0,-12.59732 12.16131,-22.18717 31.16721,-22.18717 13.53096,0 23.25858,3.71677 30.26851,13.44848 l -16.5722,8.39823 c -3.64875,-5.16377 -7.58509,-7.19807 -13.69631,-7.19807 -6.23345,0 -10.18417,3.12096 -10.18417,7.19807 0,5.03892 3.95432,7.0789 13.0852,10.19985 l 5.32035,1.79881 c 18.08203,6.11991 28.29135,12.35899 28.29135,26.38628 0,15.12246 -15.05157,23.40718 -35.26532,23.40718 -19.76441,0 -32.53326,-7.43355 -38.78108,-17.17662 z m -75.17878,1.45551 c 3.3432,4.68144 6.38443,8.63938 13.69632,8.63938 6.99196,0 11.40282,-2.15914 11.40282,-10.55452 l 0,-57.11353 21.28142,0 0,57.34051 c 0,17.39225 -12.91983,25.30813 -31.77834,25.30813 -17.03951,0 -26.90734,-6.95974 -31.92573,-15.34234 z"
     id="path6" /></svg>